<svg width="32" height="32" viewBox="0 0 32 32" fill="none" xmlns="http://www.w3.org/2000/svg">
<g clip-path="url(#clip0_212_7914)">
<rect width="32" height="32" rx="4" fill="#F9FAFA"/>
<g filter="url(#filter0_f_212_7914)">
<path d="M-9.53674e-07 12.5C6.90356 12.5 12.5 6.90356 12.5 9.53674e-07C12.5 -6.90356 6.90356 -12.5 -9.53674e-07 -12.5C-6.90356 -12.5 -12.5 -6.90356 -12.5 9.53674e-07C-12.5 6.90356 -6.90356 12.5 -9.53674e-07 12.5Z" fill="#C2AAF1"/>
</g>
<g filter="url(#filter1_f_212_7914)">
<path d="M32 44.5C38.9036 44.5 44.5 38.9036 44.5 32C44.5 25.0964 38.9036 19.5 32 19.5C25.0964 19.5 19.5 25.0964 19.5 32C19.5 38.9036 25.0964 44.5 32 44.5Z" fill="#A0BFFC"/>
</g>
<path d="M20.0303 21.2466C20.5034 20.8044 21.0652 20.5833 21.7157 20.5833C22.3071 20.5833 22.8098 20.7843 23.2238 21.1863C23.6575 21.5683 23.8743 22.101 23.8743 22.7845C23.8743 23.488 23.6378 24.061 23.1647 24.5032C22.6916 24.9455 22.1199 25.1666 21.4496 25.1666C20.8385 25.1666 20.326 24.9857 19.912 24.6238C19.498 24.2419 19.291 23.7092 19.291 23.0257C19.291 22.2819 19.5374 21.6889 20.0303 21.2466Z" fill="#8354E0"/>
<path d="M10.1503 13.5469C10.2344 13.0304 10.5964 12.7722 11.2361 12.7722H11.7159C11.7159 10.8442 12.1284 9.37238 12.9533 8.35673C13.795 7.34108 14.8809 6.83325 16.2109 6.83325C17.1368 6.83325 17.8775 7.10868 18.4331 7.65954C19.0055 8.19319 19.2917 8.86455 19.2917 9.67363C19.2917 10.1384 19.157 10.4999 18.8876 10.7581C18.6183 11.0164 18.3152 11.1455 17.9785 11.1455C17.3725 11.1455 16.96 10.784 16.7412 10.061C16.4381 9.0453 15.992 8.53748 15.4028 8.53748C15.0324 8.53748 14.721 8.70101 14.4684 9.02809C14.2327 9.35516 14.1149 9.84577 14.1149 10.4999C14.1149 11.0508 14.1991 11.5672 14.3674 12.0492C14.5358 12.5312 14.7799 12.7722 15.0997 12.7722H17.4987C18.0375 12.7722 18.3068 12.9874 18.3068 13.4178C18.3068 13.5038 18.2984 13.5899 18.2816 13.676C18.1806 14.2613 17.8523 14.5539 17.2967 14.5539C17.263 14.5539 17.2294 14.5539 17.1957 14.5539L15.0997 14.4764V21.6032C15.0997 22.2057 15.1923 22.6791 15.3775 23.0234C15.5627 23.3505 15.7563 23.557 15.9583 23.6431C16.1772 23.712 16.3792 23.8153 16.5644 23.953C16.7496 24.0907 16.8422 24.28 16.8422 24.521C16.8422 24.9514 16.4718 25.1666 15.7311 25.1666H11.6149C10.8573 25.1666 10.4785 24.9428 10.4785 24.4952C10.4785 24.2887 10.5375 24.1165 10.6553 23.9788C10.79 23.8239 10.9331 23.6948 11.0846 23.5915C11.2529 23.471 11.396 23.2472 11.5139 22.9201C11.6486 22.5758 11.7159 22.1369 11.7159 21.6032V14.3215L11.0088 14.2957C10.8068 14.2785 10.6469 14.2613 10.529 14.2441C10.4112 14.2096 10.3102 14.1494 10.226 14.0633C10.1587 13.96 10.125 13.8395 10.125 13.7018C10.125 13.6502 10.1334 13.5985 10.1503 13.5469Z" fill="#1F2020"/>
</g>
<defs>
<filter id="filter0_f_212_7914" x="-37.5" y="-37.5" width="75" height="75" filterUnits="userSpaceOnUse" color-interpolation-filters="sRGB">
<feFlood flood-opacity="0" result="BackgroundImageFix"/>
<feBlend mode="normal" in="SourceGraphic" in2="BackgroundImageFix" result="shape"/>
<feGaussianBlur stdDeviation="12.5" result="effect1_foregroundBlur_212_7914"/>
</filter>
<filter id="filter1_f_212_7914" x="-5.5" y="-5.5" width="75" height="75" filterUnits="userSpaceOnUse" color-interpolation-filters="sRGB">
<feFlood flood-opacity="0" result="BackgroundImageFix"/>
<feBlend mode="normal" in="SourceGraphic" in2="BackgroundImageFix" result="shape"/>
<feGaussianBlur stdDeviation="12.5" result="effect1_foregroundBlur_212_7914"/>
</filter>
<clipPath id="clip0_212_7914">
<rect width="32" height="32" rx="4" fill="white"/>
</clipPath>
</defs>
</svg>
